<?xml version="1.0" standalone="no"?>
<!DOCTYPE svg PUBLIC "-//W3C//DTD SVG 20010904//EN"
 "http://www.w3.org/TR/2001/REC-SVG-20010904/DTD/svg10.dtd">
<svg version="1.0" xmlns="http://www.w3.org/2000/svg"
 width="192.000000pt" height="192.000000pt" viewBox="0 0 192.000000 192.000000"
 preserveAspectRatio="xMidYMid meet">
<metadata>
Created by potrace 1.11, written by Peter Selinger 2001-2013
</metadata>
<g transform="translate(0.000000,192.000000) scale(0.100000,-0.100000)"
fill="#000000" stroke="none">
<path d="M1005 1748 c-2 -7 -5 -20 -8 -28 -2 -10 -14 -14 -38 -12 -65 6 -145
-45 -172 -108 -6 -15 -11 -111 -12 -235 l-1 -210 -24 0 c-14 0 -34 14 -53 37
-29 36 -31 43 -32 135 -2 146 -12 166 -98 189 -106 28 -167 -11 -173 -111 -1
-16 -3 -38 -3 -48 -1 -13 -7 -16 -28 -12 -30 5 -62 -9 -50 -21 4 -4 23 -7 42
-7 19 0 35 -3 36 -6 5 -38 4 -51 -5 -52 -6 -1 -17 -2 -23 -3 -21 -2 -15 -21 8
-26 17 -4 23 -14 24 -41 4 -51 36 -119 80 -167 58 -65 147 -101 259 -105 l40
-2 0 -305 c1 -348 3 -360 82 -410 51 -32 105 -36 177 -13 72 23 95 40 119 87
19 38 21 57 20 239 l-1 198 22 -6 c32 -10 78 -58 80 -83 1 -12 4 -22 7 -22 3
0 5 -45 6 -100 0 -99 1 -101 31 -131 21 -22 41 -32 68 -33 46 -3 132 26 151
51 15 20 16 25 17 146 1 76 4 87 19 87 10 0 18 7 18 15 0 8 -9 15 -20 15 -15
0 -20 7 -20 28 0 36 -41 122 -74 155 -35 36 -101 73 -156 88 -57 16 -57 16
-107 17 l-42 2 1 146 c0 111 3 144 12 141 18 -7 40 9 32 22 -4 6 -16 11 -26
11 -18 0 -19 9 -17 155 1 85 -1 155 -5 155 -5 0 -8 8 -8 19 0 10 -15 33 -34
51 l-34 34 22 17 c11 9 18 21 13 25 -7 7 -57 -14 -68 -29 -12 -16 -37 21 -32
47 5 26 -14 38 -22 14z"/>
</g>
</svg>
