<svg xmlns="http://www.w3.org/2000/svg" viewBox="0 0 348.39 348.39"><defs><style>.cls-1{fill:none;stroke:#000;stroke-miterlimit:10;stroke-width:18px;}.cls-2{fill:#231f20;}</style></defs><g id="Layer_2" data-name="Layer 2"><g id="Layer_1-2" data-name="Layer 1"><rect class="cls-1" x="9" y="9" width="330.39" height="330.39" rx="52"/><path class="cls-2" d="M83.22,138.5q4.27,3,25.76,17.9t32.92,22.93q1.26.88,5.34,3.84t6.78,4.77q2.7,1.83,6.54,4.09a38.07,38.07,0,0,0,7.22,3.38,19.86,19.86,0,0,0,6.29,1.13h.25a19.75,19.75,0,0,0,6.28-1.13,38.43,38.43,0,0,0,7.23-3.38q3.82-2.26,6.53-4.09t6.79-4.77q4.08-3,5.34-3.84,11.55-8,58.8-40.83A59.75,59.75,0,0,0,280.62,123a33.16,33.16,0,0,0,6.16-19A20.27,20.27,0,0,0,266.67,84h-185Q72,84,66.82,90.5t-5.21,16.33q0,7.92,6.91,17.16A62.47,62.47,0,0,0,83.22,138.5Z"/><path class="cls-2" d="M274.21,151.94q-41.2,27.9-62.57,43.35-7.17,5.28-11.63,8.23a71.4,71.4,0,0,1-11.87,6,36.06,36.06,0,0,1-13.82,3.08h-.25a36.11,36.11,0,0,1-13.83-3.08,71.4,71.4,0,0,1-11.87-6q-4.45-3-11.62-8.23-17-12.43-62.45-43.35A66.34,66.34,0,0,1,61.61,141v99.77a20.14,20.14,0,0,0,20.1,20.1h185a20.16,20.16,0,0,0,20.11-20.1V141A69.19,69.19,0,0,1,274.21,151.94Z"/></g></g></svg>