<svg xmlns="http://www.w3.org/2000/svg" viewBox="0 0 348.39 348.39"><defs><style>.cls-1{fill:none;stroke:#000;stroke-miterlimit:10;stroke-width:18px;}.cls-2{fill:#231f20;}</style></defs><g id="Layer_2" data-name="Layer 2"><g id="Layer_1-2" data-name="Layer 1"><rect class="cls-1" x="9" y="9" width="330.39" height="330.39" rx="52"/><path class="cls-2" d="M174.19,51.52c-70.72,0-128,56.32-128,125.79,0,55.58,36.67,102.72,87.52,119.33,6.4,1.19,8.75-2.71,8.75-6,0-3-.11-10.91-.16-21.39-35.61,7.58-43.12-16.88-43.12-16.88-5.82-14.51-14.24-18.4-14.24-18.4-11.59-7.79.9-7.63.9-7.63,12.85.87,19.61,13,19.61,13,11.41,19.23,30,13.67,37.28,10.46,1.15-8.14,4.44-13.67,8.1-16.82-28.42-3.15-58.3-14-58.3-62.15A48.07,48.07,0,0,1,105.7,137c-1.44-3.18-5.76-16,1.12-33.29,0,0,10.72-3.38,35.2,12.89a122.87,122.87,0,0,1,64,0c24.32-16.27,35-12.89,35-12.89,6.88,17.32,2.56,30.11,1.28,33.29a48.25,48.25,0,0,1,13.12,33.75c0,48.32-29.92,58.95-58.4,62,4.48,3.78,8.64,11.49,8.64,23.28,0,16.83-.16,30.36-.16,34.44,0,3.3,2.24,7.23,8.8,6,51.21-16.51,87.85-63.68,87.85-119.17C302.19,107.84,244.88,51.52,174.19,51.52Z"/></g></g></svg>