<svg xmlns="http://www.w3.org/2000/svg" viewBox="0 0 348.39 348.39"><defs><style>.cls-1{fill:none;stroke:#000;stroke-width:18px;}.cls-1,.cls-2{stroke-miterlimit:10;}.cls-2{fill:#231f20;stroke:#fff;}</style></defs><g id="Layer_2" data-name="Layer 2"><g id="Layer_1-2" data-name="Layer 1"><rect class="cls-1" x="9" y="9" width="330.39" height="330.39" rx="52"/><path class="cls-2" d="M89.09,52.15c-17.09,0-28.27,11.22-28.27,26,0,14.43,10.84,26,27.62,26h.32c17.43,0,28.28-11.54,28.28-26C116.71,63.37,106.19,52.15,89.09,52.15Z"/><path class="cls-2" d="M63.77,124.63h50V275h-50Z"/><path class="cls-2" d="M236.43,121.1c-27,0-45.05,25.34-45.05,25.34V124.63h-50V275h50V191c0-4.5.33-9,1.65-12.2,3.61-9,11.83-18.28,25.64-18.28,18.09,0,25.32,13.79,25.32,34V275h50V188.78C294,142.6,269.31,121.1,236.43,121.1Z"/></g></g></svg>